<svg width="16" height="16" viewBox="0 0 16 16" fill="none" xmlns="http://www.w3.org/2000/svg">
<path d="M12.1667 7.16675C6.79955 7.16675 8.68406 7.16675 3.83333 7.16675C3.61232 7.16675 3.40036 7.25455 3.24408 7.41083C3.0878 7.56711 3 7.77907 3 8.00008C3 8.2211 3.0878 8.43306 3.24408 8.58934C3.40036 8.74562 3.61232 8.83341 3.83333 8.83341C9.20045 8.83341 7.31594 8.83341 12.1667 8.83341C12.3877 8.83341 12.5996 8.74562 12.7559 8.58934C12.9122 8.43306 13 8.2211 13 8.00008C13 7.77907 12.9122 7.56711 12.7559 7.41083C12.5996 7.25455 12.3877 7.16675 12.1667 7.16675Z" fill="#40485D"/>
</svg>
