<svg width="16" height="16" viewBox="0 0 16 16" fill="none" xmlns="http://www.w3.org/2000/svg">
<path d="M12.1667 7.16667H8.83333V3.83333C8.83333 3.61232 8.74554 3.40036 8.58926 3.24408C8.43298 3.0878 8.22101 3 8 3C7.77899 3 7.56702 3.0878 7.41074 3.24408C7.25446 3.40036 7.16667 3.61232 7.16667 3.83333V7.16667H3.83333C3.61232 7.16667 3.40036 7.25446 3.24408 7.41074C3.0878 7.56702 3 7.77899 3 8C3 8.22101 3.0878 8.43298 3.24408 8.58926C3.40036 8.74554 3.61232 8.83333 3.83333 8.83333H7.16667V12.1667C7.16667 12.3877 7.25446 12.5996 7.41074 12.7559C7.56702 12.9122 7.77899 13 8 13C8.22101 13 8.43298 12.9122 8.58926 12.7559C8.74554 12.5996 8.83333 12.3877 8.83333 12.1667V8.83333H12.1667C12.3877 8.83333 12.5996 8.74554 12.7559 8.58926C12.9122 8.43298 13 8.22101 13 8C13 7.77899 12.9122 7.56702 12.7559 7.41074C12.5996 7.25446 12.3877 7.16667 12.1667 7.16667Z" fill="#40485D"/>
</svg>
