<svg width="108" height="25" viewBox="0 0 108 25" fill="none" xmlns="http://www.w3.org/2000/svg">
<path d="M13.418 13.904L15.308 8.5C15.532 7.87467 15.644 7.408 15.644 7.1C15.644 6.81067 15.5413 6.624 15.336 6.54C15.14 6.44667 14.832 6.4 14.412 6.4V5.84H18.388V6.4C18.0333 6.4 17.7113 6.48867 17.422 6.666C17.142 6.834 16.9273 7.12333 16.778 7.534L13.404 16.76H12.158L9.722 9.368L6.95 16.76H5.788L2.82 8.584C2.64267 8.108 2.47934 7.72533 2.33 7.436C2.18067 7.14667 2.022 6.92733 1.854 6.778C1.686 6.62867 1.504 6.53067 1.308 6.484C1.112 6.43733 0.878668 6.414 0.608002 6.414V5.84H5.9V6.414C5.424 6.414 5.09734 6.46067 4.92 6.554C4.74267 6.638 4.654 6.78267 4.654 6.988C4.654 7.06267 4.65867 7.13733 4.668 7.212C4.67734 7.27733 4.696 7.35667 4.724 7.45C4.752 7.534 4.78467 7.64133 4.822 7.772C4.86867 7.90267 4.92934 8.066 5.004 8.262L6.964 13.904L9.232 7.716C9.13867 7.464 9.04533 7.25867 8.952 7.1C8.85867 6.94133 8.74667 6.81533 8.616 6.722C8.49467 6.62867 8.35467 6.56333 8.196 6.526C8.03733 6.47933 7.846 6.442 7.622 6.414V5.84H12.564V6.414C12.172 6.414 11.8827 6.46533 11.696 6.568C11.5093 6.66133 11.416 6.848 11.416 7.128C11.416 7.268 11.4347 7.43133 11.472 7.618C11.5187 7.80467 11.5793 8.01933 11.654 8.262L13.418 13.904Z" fill="#1E2840"/>
<path d="M21.5921 14.324C21.5921 14.6973 21.6061 14.996 21.6341 15.22C21.6621 15.444 21.7181 15.6167 21.8021 15.738C21.8861 15.8593 22.0075 15.9433 22.1661 15.99C22.3248 16.0273 22.5395 16.0507 22.8101 16.06V16.62H18.4001V16.06C18.6615 16.0507 18.8715 16.0227 19.0301 15.976C19.1981 15.92 19.3241 15.836 19.4081 15.724C19.5015 15.6027 19.5621 15.4393 19.5901 15.234C19.6275 15.0193 19.6461 14.7487 19.6461 14.422V12.7C19.6461 12.1587 19.6368 11.7153 19.6181 11.37C19.5995 11.0153 19.5761 10.7727 19.5481 10.642C19.5015 10.4087 19.3941 10.2547 19.2261 10.18C19.0675 10.1053 18.7735 10.068 18.3441 10.068V9.592L21.5921 9.06V14.324ZM19.5341 6.092C19.5341 5.784 19.6368 5.52733 19.8421 5.322C20.0568 5.10733 20.3135 5 20.6121 5C20.9201 5 21.1768 5.10733 21.3821 5.322C21.5968 5.52733 21.7041 5.784 21.7041 6.092C21.7041 6.39067 21.5968 6.64733 21.3821 6.862C21.1768 7.06733 20.9201 7.17 20.6121 7.17C20.3135 7.17 20.0568 7.06733 19.8421 6.862C19.6368 6.64733 19.5341 6.39067 19.5341 6.092Z" fill="#1E2840"/>
<path d="M28.0647 16.06C28.3634 16.06 28.5734 16.0507 28.6947 16.032C28.8161 16.004 28.8767 15.9527 28.8767 15.878C28.8767 15.822 28.8114 15.6867 28.6807 15.472C28.5594 15.248 28.4007 14.9913 28.2047 14.702L27.1407 13.106L26.4407 13.778V14.324C26.4407 14.688 26.4547 14.982 26.4827 15.206C26.5107 15.43 26.5574 15.6073 26.6227 15.738C26.6974 15.8593 26.7954 15.9433 26.9167 15.99C27.0474 16.0367 27.2107 16.06 27.4067 16.06V16.62H23.2767V16.06C23.5381 16.0507 23.7481 16.0227 23.9067 15.976C24.0654 15.9293 24.1914 15.85 24.2847 15.738C24.3781 15.6167 24.4387 15.4533 24.4667 15.248C24.5041 15.0333 24.5227 14.758 24.5227 14.422V8.486C24.5227 7.91667 24.5134 7.46867 24.4947 7.142C24.4761 6.81533 24.4247 6.57267 24.3407 6.414C24.2661 6.246 24.1447 6.14333 23.9767 6.106C23.8181 6.06867 23.5987 6.05 23.3187 6.05V5.532L26.4407 5V12.784L27.7847 11.51C28.2701 11.0527 28.6154 10.712 28.8207 10.488C29.0261 10.2547 29.1287 10.0867 29.1287 9.984C29.1287 9.9 29.0401 9.844 28.8627 9.816C28.6947 9.77867 28.3774 9.76 27.9107 9.76V9.2H31.7327V9.76C31.3781 9.76 31.0654 9.82067 30.7947 9.942C30.5241 10.0633 30.2301 10.2733 29.9127 10.572L28.5547 11.846L30.9767 15.276C31.1914 15.5747 31.4014 15.78 31.6067 15.892C31.8121 16.004 32.0827 16.06 32.4187 16.06V16.62H28.0647V16.06Z" fill="#1E2840"/>
<path d="M35.9476 14.324C35.9476 14.6973 35.9616 14.996 35.9896 15.22C36.0176 15.444 36.0736 15.6167 36.1576 15.738C36.2416 15.8593 36.3629 15.9433 36.5216 15.99C36.6803 16.0273 36.8949 16.0507 37.1656 16.06V16.62H32.7556V16.06C33.0169 16.0507 33.2269 16.0227 33.3856 15.976C33.5536 15.92 33.6796 15.836 33.7636 15.724C33.8569 15.6027 33.9176 15.4393 33.9456 15.234C33.9829 15.0193 34.0016 14.7487 34.0016 14.422V12.7C34.0016 12.1587 33.9923 11.7153 33.9736 11.37C33.9549 11.0153 33.9316 10.7727 33.9036 10.642C33.8569 10.4087 33.7496 10.2547 33.5816 10.18C33.4229 10.1053 33.1289 10.068 32.6996 10.068V9.592L35.9476 9.06V14.324ZM33.8896 6.092C33.8896 5.784 33.9923 5.52733 34.1976 5.322C34.4123 5.10733 34.6689 5 34.9676 5C35.2756 5 35.5323 5.10733 35.7376 5.322C35.9523 5.52733 36.0596 5.784 36.0596 6.092C36.0596 6.39067 35.9523 6.64733 35.7376 6.862C35.5323 7.06733 35.2756 7.17 34.9676 7.17C34.6689 7.17 34.4123 7.06733 34.1976 6.862C33.9923 6.64733 33.8896 6.39067 33.8896 6.092Z" fill="#1E2840"/>
<path d="M47.259 16.76C46.419 16.76 45.6583 16.6387 44.977 16.396C44.305 16.144 43.731 15.7893 43.255 15.332C42.7883 14.8653 42.4243 14.3053 42.163 13.652C41.911 12.9893 41.785 12.2473 41.785 11.426C41.785 10.5767 41.9203 9.802 42.191 9.102C42.471 8.39267 42.8583 7.786 43.353 7.282C43.8476 6.778 44.4403 6.39067 45.131 6.12C45.8216 5.84 46.587 5.7 47.427 5.7C48.0056 5.7 48.5563 5.77933 49.079 5.938C49.6016 6.09667 50.1663 6.35333 50.773 6.708L51.039 5.84H51.543V9.382H50.843C50.6563 8.50467 50.2783 7.82333 49.709 7.338C49.149 6.85267 48.4443 6.61 47.595 6.61C46.5216 6.61 45.6863 7.02533 45.089 7.856C44.501 8.67733 44.207 9.83 44.207 11.314C44.207 12.77 44.4963 13.8853 45.075 14.66C45.6536 15.4347 46.4936 15.822 47.595 15.822C48.3883 15.822 49.0043 15.6213 49.443 15.22C49.891 14.8093 50.115 14.2447 50.115 13.526C50.115 13.0967 50.003 12.784 49.779 12.588C49.555 12.3827 49.177 12.2567 48.645 12.21V11.65H53.181V12.21C52.7236 12.21 52.4063 12.3127 52.229 12.518C52.0516 12.714 51.963 13.0733 51.963 13.596V15.458C51.7576 15.458 51.585 15.4673 51.445 15.486C51.305 15.4953 51.165 15.5233 51.025 15.57C50.8943 15.6073 50.745 15.6727 50.577 15.766C50.409 15.8593 50.199 15.9807 49.947 16.13C49.2283 16.55 48.3323 16.76 47.259 16.76Z" fill="#1E2840"/>
<path d="M60.9506 15.318C60.1013 16.2793 59.042 16.76 57.7726 16.76C57.194 16.76 56.6666 16.6713 56.1906 16.494C55.724 16.3073 55.3226 16.0507 54.9866 15.724C54.6506 15.388 54.3893 14.9913 54.2026 14.534C54.016 14.0767 53.9226 13.568 53.9226 13.008C53.9226 12.4293 54.0206 11.902 54.2166 11.426C54.4126 10.9407 54.688 10.5253 55.0426 10.18C55.4066 9.82533 55.8313 9.55 56.3166 9.354C56.8113 9.158 57.3526 9.06 57.9406 9.06C58.93 9.06 59.7 9.326 60.2506 9.858C60.8013 10.39 61.0766 11.1367 61.0766 12.098C61.0766 12.2473 61.0533 12.3407 61.0066 12.378C60.96 12.406 60.8293 12.42 60.6146 12.42H56.1066C56.0693 12.504 56.0506 12.658 56.0506 12.882C56.0506 13.7967 56.2466 14.52 56.6386 15.052C57.04 15.584 57.5813 15.85 58.2626 15.85C58.6546 15.85 59.042 15.7613 59.4246 15.584C59.8166 15.4067 60.1946 15.1547 60.5586 14.828L60.9506 15.318ZM58.2346 11.636C58.608 11.636 58.846 11.6173 58.9486 11.58C59.0606 11.5333 59.1166 11.4307 59.1166 11.272C59.1166 10.8613 59 10.5253 58.7666 10.264C58.5333 10.0027 58.2393 9.872 57.8846 9.872C57.4833 9.872 57.124 10.04 56.8066 10.376C56.4986 10.7027 56.298 11.1227 56.2046 11.636H58.2346Z" fill="#1E2840"/>
<path d="M66.1721 9.06C66.7321 9.06 67.2594 9.158 67.7541 9.354C68.2581 9.54067 68.6968 9.802 69.0701 10.138C69.4528 10.474 69.7514 10.8753 69.9661 11.342C70.1901 11.7993 70.3021 12.3033 70.3021 12.854C70.3021 13.4233 70.1901 13.946 69.9661 14.422C69.7514 14.898 69.4528 15.3087 69.0701 15.654C68.6968 15.9993 68.2581 16.27 67.7541 16.466C67.2594 16.662 66.7321 16.76 66.1721 16.76C65.6214 16.76 65.0987 16.6667 64.6041 16.48C64.1094 16.284 63.6754 16.0133 63.3021 15.668C62.9287 15.3227 62.6347 14.912 62.4201 14.436C62.2054 13.9507 62.0981 13.4233 62.0981 12.854C62.0981 12.3033 62.2054 11.7947 62.4201 11.328C62.6347 10.8613 62.9287 10.46 63.3021 10.124C63.6754 9.788 64.1094 9.52667 64.6041 9.34C65.0987 9.15333 65.6214 9.06 66.1721 9.06ZM66.1721 9.872C65.8921 9.872 65.6354 9.94667 65.4021 10.096C65.1687 10.236 64.9681 10.4367 64.8001 10.698C64.6414 10.9593 64.5154 11.2767 64.4221 11.65C64.3381 12.014 64.2961 12.42 64.2961 12.868C64.2961 13.3347 64.3381 13.7547 64.4221 14.128C64.5154 14.5013 64.6414 14.8187 64.8001 15.08C64.9681 15.3413 65.1641 15.5467 65.3881 15.696C65.6214 15.836 65.8827 15.906 66.1721 15.906C66.4614 15.906 66.7227 15.836 66.9561 15.696C67.1987 15.5467 67.4041 15.3413 67.5721 15.08C67.7401 14.8093 67.8707 14.4873 67.9641 14.114C68.0574 13.7407 68.1041 13.3253 68.1041 12.868C68.1041 12.42 68.0574 12.014 67.9641 11.65C67.8707 11.286 67.7401 10.9733 67.5721 10.712C67.4041 10.4413 67.1987 10.236 66.9561 10.096C66.7227 9.94667 66.4614 9.872 66.1721 9.872Z" fill="#1E2840"/>
<path d="M73.8743 10.11H73.9303C74.5463 9.41 75.3489 9.06 76.3383 9.06C76.8796 9.06 77.3743 9.158 77.8223 9.354C78.2796 9.54067 78.6716 9.80667 78.9983 10.152C79.3343 10.488 79.5909 10.894 79.7683 11.37C79.9549 11.8367 80.0483 12.35 80.0483 12.91C80.0483 13.47 79.9549 13.9833 79.7683 14.45C79.5909 14.9167 79.3389 15.3227 79.0123 15.668C78.6856 16.0133 78.2936 16.284 77.8363 16.48C77.3883 16.6667 76.8983 16.76 76.3663 16.76C75.4609 16.76 74.7703 16.452 74.2943 15.836H74.2383V17.782C74.2383 18.1553 74.2569 18.454 74.2943 18.678C74.3316 18.902 74.4109 19.0747 74.5323 19.196C74.6536 19.3173 74.8216 19.4013 75.0363 19.448C75.2603 19.4947 75.5543 19.5227 75.9183 19.532V20.12H71.0883V19.532C71.3403 19.5227 71.5456 19.4947 71.7043 19.448C71.8629 19.4013 71.9843 19.3173 72.0683 19.196C72.1616 19.0747 72.2223 18.9067 72.2503 18.692C72.2876 18.4867 72.3063 18.216 72.3063 17.88V12.672C72.3063 12.2427 72.2969 11.8367 72.2783 11.454C72.2596 11.062 72.2363 10.7867 72.2083 10.628C72.1616 10.4133 72.0543 10.264 71.8863 10.18C71.7276 10.096 71.4523 10.054 71.0603 10.054V9.508L73.8743 9.116V10.11ZM76.2543 9.858C75.9556 9.858 75.6709 9.92333 75.4003 10.054C75.1296 10.1847 74.9149 10.3573 74.7563 10.572C74.5976 10.7867 74.4763 11.0573 74.3923 11.384C74.3083 11.7013 74.2663 12.0467 74.2663 12.42V13.372C74.2663 14.0347 74.4296 14.5993 74.7563 15.066C75.1109 15.5793 75.6103 15.836 76.2543 15.836C76.8236 15.836 77.2436 15.6027 77.5143 15.136C77.7943 14.66 77.9343 13.9273 77.9343 12.938C77.9343 10.8847 77.3743 9.858 76.2543 9.858Z" fill="#1E2840"/>
<path d="M85.176 9.06C85.736 9.06 86.2633 9.158 86.758 9.354C87.262 9.54067 87.7007 9.802 88.074 10.138C88.4567 10.474 88.7553 10.8753 88.97 11.342C89.194 11.7993 89.306 12.3033 89.306 12.854C89.306 13.4233 89.194 13.946 88.97 14.422C88.7553 14.898 88.4567 15.3087 88.074 15.654C87.7007 15.9993 87.262 16.27 86.758 16.466C86.2633 16.662 85.736 16.76 85.176 16.76C84.6253 16.76 84.1027 16.6667 83.608 16.48C83.1133 16.284 82.6793 16.0133 82.306 15.668C81.9327 15.3227 81.6387 14.912 81.424 14.436C81.2093 13.9507 81.102 13.4233 81.102 12.854C81.102 12.3033 81.2093 11.7947 81.424 11.328C81.6387 10.8613 81.9327 10.46 82.306 10.124C82.6793 9.788 83.1133 9.52667 83.608 9.34C84.1027 9.15333 84.6253 9.06 85.176 9.06ZM85.176 9.872C84.896 9.872 84.6393 9.94667 84.406 10.096C84.1726 10.236 83.972 10.4367 83.804 10.698C83.6453 10.9593 83.5193 11.2767 83.426 11.65C83.342 12.014 83.3 12.42 83.3 12.868C83.3 13.3347 83.342 13.7547 83.426 14.128C83.5193 14.5013 83.6453 14.8187 83.804 15.08C83.972 15.3413 84.168 15.5467 84.392 15.696C84.6253 15.836 84.8867 15.906 85.176 15.906C85.4653 15.906 85.7267 15.836 85.96 15.696C86.2027 15.5467 86.408 15.3413 86.576 15.08C86.744 14.8093 86.8747 14.4873 86.968 14.114C87.0613 13.7407 87.108 13.3253 87.108 12.868C87.108 12.42 87.0613 12.014 86.968 11.65C86.8747 11.286 86.744 10.9733 86.576 10.712C86.408 10.4413 86.2027 10.236 85.96 10.096C85.7267 9.94667 85.4653 9.872 85.176 9.872Z" fill="#1E2840"/>
<path d="M93.2842 14.324C93.2842 14.6973 93.2982 14.996 93.3262 15.22C93.3542 15.444 93.4102 15.6167 93.4942 15.738C93.5782 15.8593 93.6995 15.9433 93.8582 15.99C94.0168 16.0273 94.2315 16.0507 94.5022 16.06V16.62H90.0922V16.06C90.3535 16.0507 90.5635 16.0227 90.7222 15.976C90.8902 15.92 91.0162 15.836 91.1002 15.724C91.1935 15.6027 91.2542 15.4393 91.2822 15.234C91.3195 15.0193 91.3382 14.7487 91.3382 14.422V8.64C91.3382 8.09867 91.3288 7.65533 91.3102 7.31C91.2915 6.95533 91.2682 6.71267 91.2402 6.582C91.1935 6.34867 91.0862 6.19467 90.9182 6.12C90.7595 6.04533 90.4655 6.008 90.0362 6.008V5.532L93.2842 5V14.324Z" fill="#1E2840"/>
<path d="M98.4007 14.324C98.4007 14.6973 98.4147 14.996 98.4427 15.22C98.4707 15.444 98.5267 15.6167 98.6107 15.738C98.6947 15.8593 98.8161 15.9433 98.9747 15.99C99.1334 16.0273 99.3481 16.0507 99.6187 16.06V16.62H95.2087V16.06C95.4701 16.0507 95.6801 16.0227 95.8387 15.976C96.0067 15.92 96.1327 15.836 96.2167 15.724C96.3101 15.6027 96.3707 15.4393 96.3987 15.234C96.4361 15.0193 96.4547 14.7487 96.4547 14.422V12.7C96.4547 12.1587 96.4454 11.7153 96.4267 11.37C96.4081 11.0153 96.3847 10.7727 96.3567 10.642C96.3101 10.4087 96.2027 10.2547 96.0347 10.18C95.8761 10.1053 95.5821 10.068 95.1527 10.068V9.592L98.4007 9.06V14.324ZM96.3427 6.092C96.3427 5.784 96.4454 5.52733 96.6507 5.322C96.8654 5.10733 97.1221 5 97.4207 5C97.7287 5 97.9854 5.10733 98.1907 5.322C98.4054 5.52733 98.5127 5.784 98.5127 6.092C98.5127 6.39067 98.4054 6.64733 98.1907 6.862C97.9854 7.06733 97.7287 7.17 97.4207 7.17C97.1221 7.17 96.8654 7.06733 96.6507 6.862C96.4454 6.64733 96.3427 6.39067 96.3427 6.092Z" fill="#1E2840"/>
<path d="M107.253 15.458C106.899 15.85 106.455 16.1533 105.923 16.368C105.401 16.5827 104.831 16.69 104.215 16.69C103.646 16.69 103.128 16.6013 102.661 16.424C102.195 16.2373 101.793 15.9807 101.457 15.654C101.121 15.3273 100.86 14.9353 100.673 14.478C100.496 14.0113 100.407 13.498 100.407 12.938C100.407 12.3593 100.505 11.832 100.701 11.356C100.897 10.88 101.173 10.474 101.527 10.138C101.882 9.79267 102.307 9.52667 102.801 9.34C103.296 9.15333 103.842 9.06 104.439 9.06C104.859 9.06 105.247 9.102 105.601 9.186C105.965 9.27 106.273 9.38667 106.525 9.536C106.787 9.68533 106.992 9.86267 107.141 10.068C107.291 10.264 107.365 10.4787 107.365 10.712C107.365 10.9827 107.286 11.1973 107.127 11.356C106.978 11.5147 106.773 11.594 106.511 11.594C106.297 11.594 106.105 11.538 105.937 11.426C105.779 11.314 105.62 11.132 105.461 10.88C105.321 10.656 105.2 10.4787 105.097 10.348C105.004 10.2173 104.915 10.1193 104.831 10.054C104.747 9.97933 104.663 9.93267 104.579 9.914C104.495 9.886 104.393 9.872 104.271 9.872C103.73 9.872 103.31 10.124 103.011 10.628C102.713 11.132 102.563 11.8367 102.563 12.742C102.563 13.7127 102.741 14.4593 103.095 14.982C103.459 15.5047 103.977 15.766 104.649 15.766C105.032 15.766 105.415 15.696 105.797 15.556C106.18 15.4067 106.544 15.1967 106.889 14.926L107.253 15.458Z" fill="#1E2840"/>
</svg>
